<?xml version="1.0" standalone="no"?>
<svg viewBox="0 0 200 200" xmlns="http://www.w3.org/2000/svg">
  <path fill="#ED8E5B" d="M40.6,-69C51.5,-64,58.4,-50.8,61,-38C63.6,-25.1,61.9,-12.6,64.1,1.3C66.3,15.1,72.3,30.2,66.8,38C61.3,45.9,44.2,46.4,31.2,52.2C18.1,57.9,9.1,68.9,-3.1,74.2C-15.2,79.6,-30.5,79.4,-43.7,73.7C-56.8,68,-67.9,56.8,-72.2,43.6C-76.5,30.4,-74,15.2,-74.9,-0.5C-75.9,-16.3,-80.3,-32.6,-73.2,-40.9C-66.1,-49.2,-47.4,-49.6,-33.3,-52.7C-19.2,-55.8,-9.6,-61.8,2.6,-66.3C14.9,-70.9,29.7,-74,40.6,-69Z" transform="translate(100 100)" />
</svg>
